HIERARCHY
ROOT SimulationBone
{
	OFFSET 0.000000 0.000000 0.000000
	CHANNELS 6 Xposition Yposition Zposition Zrotation Yrotation Xrotation 
	JOINT Hips
	{
		OFFSET 0.000000 0.000000 0.000000
		CHANNELS 6 Xposition Yposition Zposition Zrotation Yrotation Xrotation 
		JOINT RightUpLeg
		{
			OFFSET 0.103458 1.857831 10.548505
			CHANNELS 3 Zrotation Yrotation Xrotation
			JOINT RightLeg
			{
				OFFSET 43.500000 -0.000031 0.000002
				CHANNELS 3 Zrotation Yrotation Xrotation
				JOINT RightFoot
				{
					OFFSET 42.372200 0.000023 0.000003
					CHANNELS 3 Zrotation Yrotation Xrotation
					JOINT RightToe
					{
						OFFSET 17.299997 -0.000001 -0.000010
						CHANNELS 3 Zrotation Yrotation Xrotation
						End Site
						{
							OFFSET 0.000000 0.000000 0.000000
						}
					}
				}
			}
		}
		JOINT LeftUpLeg
		{
			OFFSET 0.103457 1.857828 -10.548510
			CHANNELS 3 Zrotation Yrotation Xrotation
			JOINT LeftLeg
			{
				OFFSET 43.500046 -0.000015 0.000002
				CHANNELS 3 Zrotation Yrotation Xrotation
				JOINT LeftFoot
				{
					OFFSET 42.372261 -0.000008 0.000023
					CHANNELS 3 Zrotation Yrotation Xrotation
					JOINT LeftToe
					{
						OFFSET 17.299990 -0.000007 -0.000002
						CHANNELS 3 Zrotation Yrotation Xrotation
						End Site
						{
							OFFSET 0.000000 0.000000 0.000000
						}
					}
				}
			}
		}
		JOINT Spine
		{
			OFFSET 6.901967 -2.603726 -0.000001
			CHANNELS 3 Zrotation Yrotation Xrotation
			JOINT Spine1
			{
				OFFSET 12.588100 -0.000009 -0.000003
				CHANNELS 3 Zrotation Yrotation Xrotation
				JOINT Spine2
				{
					OFFSET 12.343202 0.000008 0.000008
					CHANNELS 3 Zrotation Yrotation Xrotation
					JOINT Neck
					{
						OFFSET 25.832897 -0.000015 -0.000004
						CHANNELS 3 Zrotation Yrotation Xrotation
						JOINT Head
						{
							OFFSET 11.766609 0.000013 -0.000006
							CHANNELS 3 Zrotation Yrotation Xrotation
							End Site
							{
								OFFSET 0.000000 0.000000 0.000000
							}
						}
					}
					JOINT RightShoulder
					{
						OFFSET 19.745911 -1.480373 6.000098
						CHANNELS 3 Zrotation Yrotation Xrotation
						JOINT RightArm
						{
							OFFSET 11.284123 -0.000007 -0.000032
							CHANNELS 3 Zrotation Yrotation Xrotation
							JOINT RightForeArm
							{
								OFFSET 33.000050 0.000005 0.000031
								CHANNELS 3 Zrotation Yrotation Xrotation
								JOINT RightHand
								{
									OFFSET 25.200008 0.000017 0.000013
									CHANNELS 3 Zrotation Yrotation Xrotation
									End Site
									{
										OFFSET 0.000000 0.000000 0.000000
									}
								}
							}
						}
					}
					JOINT LeftShoulder
					{
						OFFSET 19.746092 -1.480379 -6.000077
						CHANNELS 3 Zrotation Yrotation Xrotation
						JOINT LeftArm
						{
							OFFSET 11.284136 -0.000017 -0.000017
							CHANNELS 3 Zrotation Yrotation Xrotation
							JOINT LeftForeArm
							{
								OFFSET 33.000099 0.000019 0.000015
								CHANNELS 3 Zrotation Yrotation Xrotation
								JOINT LeftHand
								{
									OFFSET 25.199780 0.000140 0.000408
									CHANNELS 3 Zrotation Yrotation Xrotation
									End Site
									{
										OFFSET 0.000000 0.000000 0.000000
									}
								}
							}
						}
					}
				}
			}
		}
	}
}
MOTION
Frames: 11
Frame Time: 0.033333
207.382930 0.000000 -142.124158 0.000000 94.538986 0.000000 -0.504622 88.490112 0.070460 93.842590 -0.994664 -176.142356 -177.624342 7.804395 -174.332328 -23.030758 -5.356102 -6.414664 87.915279 5.891042 8.353547 21.454560 0.003106 0.000017 147.848351 7.626196 -178.804203 -63.792362 -0.358253 5.731275 67.747424 -2.432039 4.849452 21.454555 -0.003091 0.000000 8.022174 -0.391792 -1.222395 6.039373 -0.719492 -2.463499 5.721579 -0.734491 -2.459124 11.280488 12.465703 24.325246 -13.412090 -17.168147 31.678158 -165.922685 -73.259796 -15.852640 -17.456008 57.948923 26.082372 -55.757464 -20.355202 2.339080 -5.145692 -20.075091 21.449243 -167.695337 75.911412 14.067704 -1.750458 -62.094397 -30.585560 -25.276179 14.395180 -1.107912 2.118302 2.739381 -26.851763 
207.393751 0.000000 -146.648146 0.000000 95.673749 0.000000 -0.672178 88.137772 0.101588 93.497236 -1.149238 -174.882840 -174.652090 6.853306 -173.062199 -22.223298 -5.830412 -5.428620 88.916332 5.192487 8.528781 21.454560 0.003113 0.000020 147.716610 8.100493 179.525129 -50.527598 0.585271 6.169730 65.962005 -2.395800 5.742688 21.454553 -0.003087 0.000000 8.133214 -0.376668 -1.301780 6.261492 -0.682571 -2.621994 5.943758 -0.698533 -2.617822 11.501028 12.820545 25.336296 -14.469028 -17.634082 33.079494 -167.376613 -73.550831 -14.359576 -22.430017 55.926231 20.192114 -59.946760 -19.745445 2.453964 -7.014404 -18.509860 23.671230 -167.237715 75.776489 14.535804 5.375046 -61.376831 -38.141457 -24.235367 14.237436 -1.081789 0.426374 0.796068 -35.617838 
207.314129 0.000000 -151.133476 0.000000 96.880172 0.000000 -0.745450 87.687263 0.078537 92.936789 -1.371677 -174.256323 -171.650399 5.920107 -172.722056 -20.906427 -6.096351 -4.279511 89.390593 4.441018 8.794933 21.454558 0.003112 0.000018 149.331103 8.095088 179.480405 -34.020476 -0.455015 5.322894 65.490688 -1.822636 5.570456 21.454551 -0.003103 0.000000 8.148567 -0.401350 -1.347497 6.293066 -0.729075 -2.714787 5.975336 -0.745580 -2.710343 11.811078 12.751805 26.159102 -14.723272 -17.576870 33.922339 -166.697979 -73.011526 -15.057963 -26.084329 53.698992 15.375867 -63.561857 -18.919189 2.537992 -6.928342 -16.399047 25.517568 -166.353219 76.024199 15.439007 11.606501 -60.697275 -45.818555 -23.755524 14.587197 -1.096941 -0.648533 -1.335772 -39.836464 
207.149052 0.000000 -155.569488 0.000000 98.168598 0.000000 -0.772493 87.381783 0.048381 92.571398 -0.980133 -174.157469 -168.306202 4.348100 -171.735189 -18.851795 -6.663358 -3.886387 89.091205 4.259974 9.001721 21.454558 0.003112 0.000019 152.542235 7.705299 175.574698 -15.501702 0.777493 5.762662 62.477154 -2.249698 5.084035 21.454553 -0.003096 -0.000003 8.151049 -0.319847 -1.336884 6.296016 -0.566731 -2.689161 5.978277 -0.583083 -2.685692 12.239660 12.657030 26.799844 -14.402159 -17.189954 34.343865 -167.857404 -73.048853 -13.867450 -27.258826 52.758826 11.497047 -66.300851 -18.075898 2.589476 -7.097494 -14.640314 26.817071 -164.199155 76.080111 17.640012 15.478209 -59.799112 -48.114509 -23.906632 14.078201 -1.066736 0.587364 -3.731200 -40.134960 
206.904509 0.000000 -159.938868 0.000000 99.545390 0.000000 -0.532990 86.658783 0.053347 92.305570 -1.025195 -174.617704 -165.675965 3.606290 -171.355117 -18.816247 -6.681040 -3.594211 88.778102 4.082797 8.869061 21.454557 0.003107 0.000016 153.359166 7.807092 169.637187 -5.936938 2.809809 6.630463 64.974299 -2.630413 6.147151 21.454551 -0.003086 0.000001 8.114900 -0.344660 -1.377553 6.224515 -0.614989 -2.771599 5.906802 -0.631842 -2.767853 12.974337 12.850144 27.457562 -14.335664 -17.535665 35.071997 -168.183300 -73.293421 -13.532388 -26.862938 52.915415 8.551629 -68.527664 -17.469880 2.638540 -6.546621 -13.927108 26.660839 -163.340149 76.105417 18.517524 17.128738 -58.707382 -48.454974 -23.660370 13.754789 -1.042480 2.539822 -5.942139 -37.688554 
206.576565 0.000000 -164.242155 0.000000 101.017218 0.000000 -0.142887 85.807663 0.158557 92.234084 -0.955362 -175.570199 -164.225574 3.107412 -172.726236 -21.692286 -5.963492 -2.668409 87.966532 3.444176 8.388962 21.454562 0.003119 0.000017 152.622148 7.415607 173.618327 -6.837303 3.607607 3.691523 65.095132 0.249145 8.076947 21.454555 -0.003098 -0.000003 8.022627 -0.309145 -1.411905 6.039219 -0.544446 -2.837947 5.721546 -0.561717 -2.834616 14.212355 12.182140 28.113028 -14.634879 -17.900517 35.812956 -168.241302 -73.104041 -13.473126 -25.183850 53.443334 7.192420 -69.588085 -17.243863 2.666786 -4.280730 -12.874863 25.215808 -163.804165 76.433423 18.040592 17.745448 -57.423313 -48.406275 -24.224485 13.806939 -1.054154 3.866062 -6.973661 -37.080014 
206.161226 0.000000 -168.467573 0.000000 102.593283 0.000000 0.173773 85.138268 0.227643 92.813108 -0.238812 -177.117562 -163.197398 2.410794 -174.982876 -26.164249 -4.842729 -1.930989 85.621168 3.069967 8.135639 21.454558 0.003108 0.000016 152.293643 6.038592 -178.789655 -12.295450 2.721214 -1.133022 57.438442 2.622425 4.056867 21.454555 -0.003090 0.000000 8.043188 -0.128125 -1.279532 6.075666 -0.189140 -2.563972 5.757920 -0.204768 -2.562785 15.922009 11.546218 28.741778 -14.855740 -18.255409 36.502030 -168.559220 -72.681354 -13.147248 -23.445639 53.778089 7.562621 -67.973626 -17.372405 2.608815 -4.558750 -13.184388 21.302727 -163.728254 76.619375 18.116404 15.659797 -56.246096 -47.215902 -24.391318 13.331477 -1.026257 5.382299 -6.600422 -39.063597 
205.651905 0.000000 -172.593046 0.000000 104.274413 0.000000 0.472659 84.794250 0.351590 93.630710 0.917493 -178.301011 -163.959948 1.627704 -177.678834 -33.830429 -2.907381 -1.510248 81.267353 3.055619 8.086440 21.454558 0.003098 0.000017 151.569315 4.744804 -176.993055 -19.680589 2.211983 -1.764137 54.808682 1.947631 1.461858 21.454553 -0.003091 -0.000000 8.125425 0.200556 -1.180464 6.233266 0.464218 -2.348430 5.915463 0.449878 -2.351193 17.335568 10.735781 29.553283 -13.945736 -17.887039 36.933121 -167.499994 -71.952553 -14.237352 -22.923233 54.146943 9.570970 -63.514817 -18.618857 2.515229 -3.896278 -13.906507 17.427474 -162.835740 76.743623 19.026409 11.394846 -55.379242 -45.962068 -23.973247 13.260940 -1.015515 4.483363 -6.078512 -40.427425 
205.047740 0.000000 -176.610405 0.000000 106.050574 0.000000 0.867120 84.501907 0.627779 94.529939 2.210174 -178.807154 -167.665599 0.111999 179.248329 -46.684579 -0.890993 -1.249053 75.895477 2.739496 6.366994 21.454562 0.003111 0.000016 150.826273 4.351196 -176.020600 -28.818030 2.741655 -1.612447 59.914775 1.571092 1.076788 21.454553 -0.003081 -0.000001 8.248739 0.627491 -1.022481 6.473587 1.311024 -2.008509 6.155612 1.298734 -2.016386 19.089245 10.701002 30.019870 -14.110516 -18.363052 37.521706 -168.236411 -71.380135 -13.480889 -24.084543 54.902918 11.583933 -56.609585 -20.179352 2.358274 -2.098477 -14.241676 13.523673 -162.598240 76.256111 19.273897 6.736263 -53.567995 -44.039547 -24.826264 13.268092 -1.028832 4.972468 -6.514394 -40.227021 
204.342347 0.000000 -180.505368 0.000000 107.912037 0.000000 1.208649 84.818169 1.003945 95.338721 3.393339 -178.947275 -172.502452 -1.390595 177.142322 -59.209981 1.297911 -3.016746 71.014665 2.174800 0.143860 21.454557 0.003109 0.000019 152.648895 4.057006 -176.304053 -33.371621 4.171476 -0.672779 65.024603 0.885640 1.341446 21.454553 -0.003096 0.000000 8.353197 0.996100 -0.836116 6.680226 2.038677 -1.613747 6.362060 2.028751 -1.626044 20.057419 11.058408 30.192882 -13.411277 -17.849277 37.337574 -169.190507 -71.764156 -12.498676 -26.186068 56.825244 12.264968 -47.818318 -20.613702 2.083905 0.470715 -12.531665 8.767968 -164.094216 76.463442 17.744116 1.255037 -52.542053 -43.028894 -24.682588 12.840539 -0.999222 4.560678 -6.197548 -39.480976 
203.537168 0.000000 -184.277689 0.000000 109.853696 0.000000 1.088740 85.641731 1.264871 95.208291 3.840161 -178.888609 -179.221937 -1.562104 176.840510 -69.065527 2.004702 -6.933353 69.295650 4.703601 -0.645171 21.454560 0.003112 0.000013 155.086385 4.199603 -173.955370 -34.559582 3.830767 -0.887307 68.288880 0.927143 1.121268 21.454555 -0.003103 0.000000 8.259220 1.127944 -0.712729 6.493228 2.293983 -1.361510 6.174958 2.285576 -1.375346 20.149896 11.230279 30.315241 -13.617271 -17.350409 37.341040 -168.080314 -71.782747 -13.640896 -28.770218 58.263289 12.725504 -38.798777 -19.721922 1.761446 4.649985 -9.521531 3.663263 -167.242004 76.826699 14.528289 -4.586440 -51.860892 -42.159606 -24.825395 12.767418 -0.996726 4.389907 -6.786453 -39.345615 
